<svg width="303" height="60" viewBox="0 0 303 60" fill="none" xmlns="http://www.w3.org/2000/svg">
<rect width="303" height="60" fill="white"/>
<path d="M14.07 40L13.146 35.17H7.056L6.132 40H0.21L6.258 13.288H13.902L20.118 40H14.07ZM7.896 30.802H12.264L10.08 19.504L7.896 30.802ZM36.5567 35.59H44.2427V40H30.5927V13.288H36.5567V35.59ZM68.6907 13.288V17.698H63.7767V40H57.7707V17.698H52.8987V13.288H68.6907ZM85.1858 35.59H93.7538V40H79.1798V13.288H93.4178V17.698H85.1858V24.208H92.1998V28.618H85.1858V35.59ZM110.729 30.004V40H104.765V13.288H115.769C119.297 13.288 121.061 14.828 121.061 17.908V25.384C121.061 27.848 119.941 29.332 117.701 29.836L122.405 40H115.979L111.779 30.004H110.729ZM110.729 17.698V25.762H113.963C114.355 25.762 114.635 25.692 114.803 25.552C114.971 25.384 115.055 25.118 115.055 24.754V18.748C115.055 18.048 114.691 17.698 113.963 17.698H110.729ZM158.041 34.54V29.71C158.041 29.346 157.957 29.094 157.789 28.954C157.621 28.786 157.327 28.702 156.907 28.702H153.211C149.907 28.702 148.255 27.134 148.255 23.998V17.908C148.255 14.828 150.019 13.288 153.547 13.288H158.671C162.199 13.288 163.963 14.828 163.963 17.908V21.394H157.957V18.748C157.957 18.048 157.579 17.698 156.823 17.698H155.395C154.639 17.698 154.261 18.048 154.261 18.748V23.452C154.261 23.816 154.345 24.082 154.513 24.25C154.681 24.39 154.975 24.46 155.395 24.46H159.007C160.799 24.46 162.087 24.852 162.871 25.636C163.655 26.392 164.047 27.526 164.047 29.038V35.338C164.047 38.446 162.283 40 158.755 40H153.673C150.117 40 148.339 38.446 148.339 35.338V31.894H154.345V34.54C154.345 35.24 154.723 35.59 155.479 35.59H156.907C157.663 35.59 158.041 35.24 158.041 34.54ZM175.739 13.288H186.743C190.271 13.288 192.035 14.828 192.035 17.908V26.014C192.035 29.122 190.271 30.676 186.743 30.676H181.703V40H175.739V13.288ZM186.029 25.216V18.748C186.029 18.048 185.665 17.698 184.937 17.698H181.703V26.266H184.937C185.665 26.266 186.029 25.916 186.029 25.216ZM203.293 13.288H214.297C217.825 13.288 219.589 14.828 219.589 17.908V26.014C219.589 29.122 217.825 30.676 214.297 30.676H209.257V40H203.293V13.288ZM213.583 25.216V18.748C213.583 18.048 213.219 17.698 212.491 17.698H209.257V26.266H212.491C213.219 26.266 213.583 25.916 213.583 25.216ZM243.027 40L242.103 35.17H236.013L235.089 40H229.167L235.215 13.288H242.859L249.075 40H243.027ZM236.853 30.802H241.221L239.037 19.504L236.853 30.802ZM275.342 22.654H269.294V18.454C269.294 17.754 268.93 17.404 268.202 17.404H266.48C265.724 17.404 265.346 17.754 265.346 18.454V34.834C265.346 35.226 265.43 35.506 265.598 35.674C265.766 35.814 266.06 35.884 266.48 35.884H268.202C268.594 35.884 268.874 35.814 269.042 35.674C269.21 35.506 269.294 35.226 269.294 34.834V30.76H275.342V35.38C275.342 38.46 273.564 40 270.008 40H264.632C261.104 40 259.34 38.46 259.34 35.38V17.908C259.34 14.828 261.104 13.288 264.632 13.288H270.008C273.564 13.288 275.342 14.828 275.342 17.908V22.654ZM292.864 35.59H301.432V40H286.858V13.288H301.096V17.698H292.864V24.208H299.878V28.618H292.864V35.59Z" fill="#21448F"/>
</svg>
